<svg width="55" height="55" viewBox="0 0 55 55" fill="none" xmlns="http://www.w3.org/2000/svg">
<path d="M26.3295 1.06474L25.2577 2.13654L24.7218 1.75577C24.4256 1.54423 23.9038 1.17756 23.5654 0.93782C23.2269 0.691025 22.9096 0.472435 22.8532 0.444229C22.6628 0.352562 22.6064 0.416027 21.309 2.29167C21.1256 2.55962 20.9141 2.79231 20.8506 2.80641C20.7872 2.82051 20.5615 2.75 20.3641 2.65833C20.1596 2.55962 19.7365 2.36218 19.4263 2.22115C19.116 2.07308 18.6929 1.87564 18.4814 1.77692C17.9949 1.55128 18.1218 1.3891 17.1981 3.37051C17.0429 3.68782 16.9231 3.97692 16.9231 4.00513C16.9231 4.03333 16.8596 4.13205 16.7891 4.22372C16.6481 4.4141 16.6551 4.4141 15.6186 4.13205C13.6795 3.60321 13.75 3.61026 13.6372 3.77243C13.5808 3.84295 13.5385 3.96987 13.5385 4.05449C13.5385 4.1391 13.4962 4.34359 13.4397 4.51987C13.3904 4.6891 13.2917 5.03461 13.2212 5.28846C13.0237 6.05705 12.8756 6.52243 12.8051 6.56474C12.7205 6.6282 11.7968 6.5718 10.725 6.44487C10.2455 6.38846 9.82949 6.36731 9.80128 6.39551C9.74487 6.45192 9.52628 8.36987 9.49808 9.01859C9.49103 9.27243 9.44872 9.41346 9.37821 9.45577C9.27949 9.50513 8.04551 9.6391 6.91026 9.72372C6.39551 9.76603 6.38141 9.77308 6.36026 9.95641C6.34615 10.0622 6.38846 10.5769 6.44487 11.0987C6.50833 11.6205 6.55769 12.234 6.55769 12.4596V12.8756L6.19103 12.9885C5.98654 13.0519 5.61282 13.1577 5.35897 13.2212C5.10513 13.2917 4.75962 13.3833 4.58333 13.4327C4.40705 13.4821 4.13205 13.5596 3.96282 13.6019C3.79359 13.6513 3.63846 13.7359 3.61731 13.7853C3.59615 13.8417 3.63141 14.0391 3.68782 14.2224C3.74423 14.4128 3.84295 14.7442 3.90641 14.9699C4.1532 15.8654 4.24487 16.1897 4.30128 16.3872C4.3859 16.641 4.27308 16.7891 3.85 16.9865C3.69487 17.0571 3.24359 17.2615 2.85577 17.4449C1.72756 17.9667 1.65705 18.016 1.67115 18.2276C1.67821 18.3333 1.79808 18.6436 1.93205 18.9186C2.61603 20.3429 2.82051 20.8154 2.77115 20.9071C2.71474 21.0058 2.57372 21.1115 1.24103 22.0353C0.789744 22.3455 0.408974 22.6417 0.387821 22.6981C0.366667 22.7545 0.394872 22.8603 0.451282 22.9449C0.507692 23.0295 0.747436 23.3609 0.980128 23.6923C1.96026 25.0673 2.05897 25.2436 1.96026 25.3705C1.9109 25.434 1.45256 25.9135 0.93782 26.4282C0.423077 26.9429 0 27.4224 0 27.4929C0 27.5635 0.458333 28.0712 1.02244 28.6282C1.58654 29.1853 2.04487 29.6788 2.04487 29.7212C2.03782 29.7564 1.84038 30.0737 1.59359 30.4263C0.324359 32.2103 0.324359 32.2173 0.465385 32.3724C0.535897 32.45 0.846154 32.6827 1.15641 32.9013C2.84167 34.0506 2.84872 34.0506 2.75 34.2974C2.68654 34.4667 2.31282 35.2846 1.88974 36.159C1.74167 36.4763 1.62179 36.7936 1.6359 36.85C1.6641 36.991 1.74167 37.0333 3.74423 37.9571C4.32244 38.225 4.37885 38.2885 4.30128 38.5705C4.27308 38.6692 4.19551 38.9513 4.125 39.2051C3.96282 39.8327 3.81474 40.3686 3.68077 40.8128C3.56795 41.1795 3.56795 41.1936 3.69487 41.2923C3.77244 41.3417 3.94872 41.4051 4.08269 41.4333C4.22372 41.4545 4.47756 41.5179 4.65385 41.5673C4.83013 41.6167 5.17564 41.7083 5.42949 41.7788C5.68333 41.8494 6.0359 41.9481 6.22628 42.0045L6.55769 42.1103V42.5122C6.55769 42.7378 6.50833 43.3513 6.44487 43.8801C6.38846 44.409 6.34615 44.9308 6.36026 45.0365C6.38141 45.234 6.38846 45.234 7.01603 45.2763C8.10192 45.3468 9.3359 45.5019 9.43462 45.5724C9.48397 45.6147 9.51923 45.8263 9.52628 46.1436C9.52628 46.6724 9.73782 48.5481 9.80128 48.6115C9.82244 48.6256 10.175 48.6045 10.5769 48.5481C10.9859 48.4987 11.6628 48.4423 12.0788 48.4282L12.8474 48.4071L12.9814 48.8654C13.059 49.1192 13.1718 49.5 13.2282 49.7115C13.2846 49.9231 13.3833 50.2545 13.4327 50.4519C13.4891 50.6423 13.5526 50.9103 13.5808 51.0372C13.6019 51.1641 13.6583 51.284 13.7077 51.3051C13.75 51.3192 14.0391 51.2699 14.3494 51.1853C14.6596 51.1077 15.0263 51.016 15.1603 50.9878C15.4141 50.9314 15.6256 50.875 16.2532 50.6776C16.5705 50.5718 16.6128 50.5718 16.7256 50.6776C16.7962 50.734 16.8667 50.8538 16.8949 50.9385C16.9513 51.1218 17.7128 52.7506 17.9032 53.0962C18.0654 53.3853 18.1147 53.3853 18.7917 53.0609C19.4968 52.7295 20.2231 52.391 20.5686 52.2429L20.8647 52.116L21.1045 52.4122C21.2385 52.5744 21.4359 52.8494 21.5558 53.0256C22.1763 53.9564 22.5923 54.5205 22.6769 54.5558C22.7827 54.5981 22.8955 54.5276 23.9038 53.8083C24.2353 53.5756 24.6724 53.2654 24.884 53.1244L25.2577 52.8635L26.3295 53.9353C26.9147 54.5205 27.4365 55 27.4859 55C27.5423 55 28.0006 54.5769 28.5154 54.0622C29.8763 52.7083 29.6647 52.8212 30.1724 53.1808C30.4051 53.35 30.8071 53.625 31.0609 53.8013C31.3147 53.9776 31.6603 54.2244 31.8365 54.3513C32.0058 54.4712 32.1891 54.5769 32.2455 54.5769C32.3019 54.5769 32.4288 54.4571 32.5276 54.309C32.6263 54.1679 32.8731 53.8083 33.0776 53.5192C33.2821 53.2301 33.5571 52.8353 33.691 52.6378C34.0436 52.116 34.1071 52.0949 34.516 52.2853C34.7135 52.3769 35.1859 52.5955 35.5737 52.7788C35.9615 52.9551 36.3635 53.1455 36.4692 53.2019C36.8429 53.4135 36.9628 53.35 37.2237 52.7929C37.3506 52.5179 37.5974 51.9891 37.7667 51.6365C37.9359 51.2769 38.0769 50.9596 38.0769 50.9244C38.0769 50.8891 38.1404 50.7974 38.2179 50.7128C38.3519 50.5718 38.3731 50.5718 38.6551 50.6635C38.8244 50.7199 39.1628 50.8115 39.4167 50.8821C40.1288 51.0654 40.6295 51.1994 40.9256 51.284C41.1654 51.3545 41.2077 51.3474 41.2994 51.2205C41.3487 51.15 41.4122 51.009 41.4333 50.9103C41.4686 50.741 41.5744 50.3109 41.7929 49.5C41.8564 49.2885 41.9551 48.95 42.0186 48.7596L42.1314 48.4071L42.9071 48.4353C43.3301 48.4494 43.993 48.4987 44.3878 48.5481C44.8532 48.6045 45.1212 48.6115 45.1776 48.5622C45.2269 48.5269 45.2692 48.3577 45.2692 48.1814C45.2692 48.0122 45.3186 47.4692 45.375 46.9756C45.4314 46.4821 45.4878 45.9532 45.4949 45.7981L45.516 45.5231L46.5737 45.4032C47.159 45.3327 47.8288 45.2763 48.0615 45.2763C48.675 45.2692 48.6821 45.2481 48.5551 44.2327C48.4987 43.7744 48.4423 43.1186 48.4282 42.7731L48.4071 42.1455L48.7244 42.0256C49.0346 41.9058 49.4083 41.8 49.9583 41.6731C50.6564 41.5038 51.2135 41.3276 51.3051 41.2359C51.3897 41.1513 51.3897 41.0949 51.3051 40.8622C51.2487 40.7071 51.15 40.3756 51.0865 40.1218C51.016 39.8679 50.9173 39.4872 50.8609 39.2756C50.8045 39.0641 50.7199 38.7679 50.6776 38.6269C50.6141 38.4013 50.6282 38.3378 50.734 38.2179C50.8045 38.1404 50.8891 38.0769 50.9173 38.0769C50.9737 38.0769 51.6295 37.7737 52.8 37.2167C53.4628 36.8994 53.4628 36.9064 53.0891 36.1731C52.6872 35.3622 52.2571 34.4173 52.2147 34.2551C52.1654 34.0506 52.2147 33.9942 52.7436 33.6346C53.2231 33.3103 53.9846 32.7744 54.316 32.5346C54.4571 32.4288 54.5769 32.2949 54.5769 32.2455C54.5769 32.1962 54.4359 31.9494 54.2596 31.6955C53.9212 31.2019 53.4064 30.4545 53.0891 30.0032L52.8917 29.7212L53.9423 28.6635C54.5276 28.0782 55 27.5564 55 27.5C55 27.4436 54.5205 26.9218 53.9423 26.3365L52.8846 25.2788L53.7308 24.0519C54.2032 23.3821 54.5769 22.7756 54.5628 22.7122C54.5487 22.6558 54.2103 22.3737 53.8013 22.0917C52.1654 20.9564 52.1583 20.9564 52.2147 20.7449C52.2359 20.6391 52.3628 20.3288 52.4968 20.0609C53.0962 18.7917 53.3006 18.3545 53.3429 18.2135C53.3923 18.0442 53.4981 18.1077 51.2769 17.05C50.9526 16.9019 50.6776 16.7327 50.6564 16.6833C50.6282 16.5987 50.6917 16.3096 51.0301 15.0897C51.0865 14.8782 51.1641 14.5891 51.1923 14.4551C51.2205 14.3212 51.2769 14.1237 51.3192 14.0179C51.4109 13.7994 51.284 13.6442 50.9455 13.5737C50.8327 13.5526 50.5647 13.4821 50.3673 13.4256C50.1628 13.3692 49.8103 13.2776 49.5917 13.2141C49.366 13.1577 49.0064 13.0519 48.7949 12.9885L48.4071 12.8686L48.4282 12.234C48.4423 11.8814 48.4987 11.2115 48.5551 10.7321C48.6115 10.2596 48.6397 9.83654 48.6186 9.80128C48.5904 9.75897 48.4141 9.73077 48.2237 9.73077C48.0333 9.73077 47.4692 9.68141 46.9756 9.625C46.4821 9.56859 45.9532 9.51218 45.7981 9.50513C45.5231 9.48397 45.516 9.47692 45.4949 9.20192C45.4878 9.04679 45.4314 8.51795 45.375 8.02436C45.3186 7.53077 45.2692 6.96667 45.2692 6.77628C45.2692 6.5859 45.241 6.40961 45.1987 6.38141C45.1635 6.36026 44.7404 6.38846 44.2679 6.44487C43.7885 6.50128 43.1186 6.55769 42.766 6.5718L42.1314 6.59295L42.0186 6.24038C41.9551 6.04295 41.8494 5.68333 41.7788 5.42949C41.7154 5.17564 41.6237 4.83013 41.5673 4.65385C41.5179 4.47756 41.4545 4.23077 41.4333 4.09679C41.4051 3.96282 41.3417 3.80064 41.2782 3.73013C41.1865 3.62436 41.1372 3.62436 40.9115 3.70192C40.6506 3.79359 40.2417 3.90641 39.7692 4.01218C39.6353 4.04744 39.2615 4.14615 38.9372 4.23077C38.3801 4.3859 38.3519 4.3859 38.2179 4.26603C38.1404 4.19551 38.0769 4.1109 38.0769 4.08269C38.0769 4.02628 37.7737 3.37051 37.2167 2.2C36.9699 1.6782 36.9205 1.6218 36.7865 1.6641C36.6385 1.71346 36.3141 1.85449 34.9109 2.51731C34.234 2.83461 33.9731 2.86282 33.8885 2.64423C33.8673 2.58782 33.7263 2.36923 33.5782 2.16474C33.4301 1.96731 33.0846 1.48782 32.8237 1.10705C32.5558 0.733334 32.2949 0.423077 32.2455 0.423077C32.2032 0.423077 31.9494 0.571152 31.6814 0.754486C31.4205 0.93782 31.0609 1.17756 30.8846 1.29744C30.7083 1.41026 30.384 1.65 30.1583 1.81923C29.6718 2.1859 29.8763 2.29167 28.5224 0.930767C28.0077 0.423077 27.5423 0 27.4929 0C27.4365 0 26.9147 0.479488 26.3295 1.06474Z" fill="#ED0010"/>
<path d="M15.9829 22.8076L15.9829 33H13.1665V26.3213C12.7108 26.6676 12.2688 26.9479 11.8404 27.1621C11.4165 27.3763 10.8833 27.5814 10.2408 27.7773V25.4941C11.1887 25.1888 11.9247 24.8219 12.4488 24.3936C12.9729 23.9652 13.383 23.4365 13.6792 22.8076H15.9829ZM27.1597 33H18.8062C18.9019 32.1751 19.1913 31.4004 19.6744 30.6758C20.162 29.9466 21.0734 29.0876 22.4087 28.0986C23.2245 27.4925 23.7463 27.0322 23.9742 26.7178C24.202 26.4033 24.316 26.1048 24.316 25.8223C24.316 25.5169 24.202 25.2572 23.9742 25.043C23.7509 24.8242 23.4683 24.7148 23.1265 24.7148C22.771 24.7148 22.4794 24.8265 22.2515 25.0498C22.0282 25.2731 21.8778 25.6673 21.8003 26.2324L19.0113 26.0068C19.1206 25.223 19.3212 24.6123 19.6128 24.1748C19.9045 23.7327 20.3147 23.3955 20.8433 23.1631C21.3765 22.9261 22.1125 22.8076 23.0513 22.8076C24.0311 22.8076 24.7922 22.9193 25.3345 23.1426C25.8814 23.3659 26.3098 23.71 26.6197 24.1748C26.9341 24.6351 27.0913 25.1523 27.0913 25.7266C27.0913 26.3372 26.9113 26.9206 26.5513 27.4766C26.1958 28.0326 25.5464 28.6432 24.6031 29.3086C24.0425 29.696 23.6665 29.9671 23.4751 30.1221C23.2883 30.277 23.0673 30.4798 22.812 30.7305H27.1597V33ZM29.4771 22.9785H36.0874V25.2002H31.6099L31.3706 26.7041C31.6805 26.5583 31.9859 26.4489 32.2867 26.376C32.592 26.3031 32.8928 26.2666 33.189 26.2666C34.1916 26.2666 35.0051 26.5697 35.6294 27.1758C36.2538 27.7819 36.566 28.5452 36.566 29.4658C36.566 30.113 36.4042 30.735 36.0806 31.332C35.7616 31.929 35.3059 32.3848 34.7134 32.6992C34.1255 33.0137 33.3713 33.1709 32.4507 33.1709C31.7899 33.1709 31.2225 33.1094 30.7486 32.9863C30.2792 32.8587 29.8781 32.6719 29.5454 32.4258C29.2173 32.1751 28.9507 31.8926 28.7456 31.5781C28.5406 31.2637 28.3697 30.8717 28.2329 30.4023L31.0494 30.0947C31.1177 30.5459 31.2772 30.89 31.5279 31.127C31.7785 31.3594 32.077 31.4756 32.4234 31.4756C32.8107 31.4756 33.1298 31.3298 33.3804 31.0381C33.6356 30.7419 33.7632 30.3021 33.7632 29.7188C33.7632 29.1217 33.6356 28.6842 33.3804 28.4062C33.1252 28.1283 32.7857 27.9893 32.3619 27.9893C32.093 27.9893 31.8332 28.0553 31.5826 28.1875C31.3957 28.2832 31.1906 28.4564 30.9673 28.707L28.5953 28.3652L29.4771 22.9785ZM37.687 27.9482C37.687 26.0433 38.0288 24.7103 38.7124 23.9492C39.4006 23.1882 40.4465 22.8076 41.8501 22.8076C42.5246 22.8076 43.0783 22.8919 43.5113 23.0605C43.9442 23.2246 44.2974 23.4411 44.5708 23.71C44.8443 23.9743 45.0585 24.2546 45.2134 24.5508C45.3729 24.8424 45.5005 25.1842 45.5962 25.5762C45.7831 26.3236 45.8765 27.1029 45.8765 27.9141C45.8765 29.7324 45.5689 31.0632 44.9536 31.9062C44.3384 32.7493 43.2788 33.1709 41.7749 33.1709C40.9318 33.1709 40.2505 33.0365 39.731 32.7676C39.2115 32.4987 38.7854 32.1045 38.4527 31.585C38.2111 31.2158 38.022 30.7122 37.8853 30.0742C37.7531 29.4316 37.687 28.723 37.687 27.9482ZM40.4488 27.9551C40.4488 29.2311 40.5604 30.1038 40.7837 30.5732C41.0116 31.0381 41.3397 31.2705 41.7681 31.2705C42.0507 31.2705 42.2945 31.1725 42.4995 30.9766C42.7092 30.776 42.8619 30.4616 42.9576 30.0332C43.0578 29.6048 43.1079 28.9372 43.1079 28.0303C43.1079 26.6995 42.994 25.8063 42.7661 25.3506C42.5428 24.8903 42.2056 24.6602 41.7544 24.6602C41.2941 24.6602 40.9615 24.8949 40.7564 25.3643C40.5513 25.8291 40.4488 26.6927 40.4488 27.9551Z" fill="white"/>
</svg>
