<?xml version="1.0" standalone="no"?>
<!DOCTYPE svg PUBLIC "-//W3C//DTD SVG 20010904//EN"
 "http://www.w3.org/TR/2001/REC-SVG-20010904/DTD/svg10.dtd">
<svg version="1.0" xmlns="http://www.w3.org/2000/svg"
 width="900.000000pt" height="888.000000pt" viewBox="0 0 900.000000 888.000000"
 preserveAspectRatio="xMidYMid meet">
<metadata>
Created by potrace 1.10, written by Peter Selinger 2001-2011
</metadata>
<g transform="translate(0.000000,888.000000) scale(0.100000,-0.100000)"
fill="#000000" stroke="none">
<path d="M4384 8299 l-152 -152 -76 54 c-42 30 -116 82 -164 116 -48 35 -93
66 -101 70 -27 13 -35 4 -219 -262 -26 -38 -56 -71 -65 -73 -9 -2 -41 8 -69
21 -29 14 -89 42 -133 62 -44 21 -104 49 -134 63 -69 32 -51 55 -182 -226 -22
-45 -39 -86 -39 -90 0 -4 -9 -18 -19 -31 -20 -27 -19 -27 -166 13 -275 75
-265 74 -281 51 -8 -10 -14 -28 -14 -40 0 -12 -6 -41 -14 -66 -7 -24 -21 -73
-31 -109 -28 -109 -49 -175 -59 -181 -12 -9 -143 -1 -295 17 -68 8 -127 11
-131 7 -8 -8 -39 -280 -43 -372 -1 -36 -7 -56 -17 -62 -14 -7 -189 -26 -350
-38 -73 -6 -75 -7 -78 -33 -2 -15 4 -88 12 -162 9 -74 16 -161 16 -193 l0 -59
-52 -16 c-29 -9 -82 -24 -118 -33 -36 -10 -85 -23 -110 -30 -25 -7 -64 -18
-88 -24 -24 -7 -46 -19 -49 -26 -3 -8 2 -36 10 -62 8 -27 22 -74 31 -106 35
-127 48 -173 56 -201 12 -36 -4 -57 -64 -85 -22 -10 -86 -39 -141 -65 -160
-74 -170 -81 -168 -111 1 -15 18 -59 37 -98 97 -202 126 -269 119 -282 -8 -14
-28 -29 -217 -160 -64 -44 -118 -86 -121 -94 -3 -8 1 -23 9 -35 8 -12 42 -59
75 -106 139 -195 153 -220 139 -238 -7 -9 -72 -77 -145 -150 -73 -73 -133
-141 -133 -151 0 -10 65 -82 145 -161 80 -79 145 -149 145 -155 -1 -5 -29 -50
-64 -100 -180 -253 -180 -254 -160 -276 10 -11 54 -44 98 -75 239 -163 240
-163 226 -198 -9 -24 -62 -140 -122 -264 -21 -45 -38 -90 -36 -98 4 -20 15
-26 299 -157 82 -38 90 -47 79 -87 -4 -14 -15 -54 -25 -90 -23 -89 -44 -165
-63 -228 -16 -52 -16 -54 2 -68 11 -7 36 -16 55 -20 20 -3 56 -12 81 -19 25
-7 74 -20 110 -30 36 -10 86 -24 113 -32 l47 -15 0 -57 c0 -32 -7 -119 -16
-194 -8 -75 -14 -149 -12 -164 3 -28 4 -28 93 -34 154 -10 329 -32 343 -42 7
-6 12 -36 13 -81 0 -75 30 -341 39 -350 3 -2 53 1 110 9 58 7 154 15 213 17
l109 3 19 -65 c11 -36 27 -90 35 -120 8 -30 22 -77 29 -105 8 -27 17 -65 21
-83 3 -18 11 -35 18 -38 6 -2 47 5 91 17 44 11 96 24 115 28 36 8 66 16 155
44 45 15 51 15 67 0 10 -8 20 -25 24 -37 8 -26 116 -257 143 -306 23 -41 30
-41 126 5 100 47 203 95 252 116 l42 18 34 -42 c19 -23 47 -62 64 -87 88 -132
147 -212 159 -217 15 -6 31 4 174 106 47 33 109 77 139 97 l53 37 152 -152
c83 -83 157 -151 164 -151 8 0 73 60 146 133 193 192 163 176 235 125 33 -24
90 -63 126 -88 36 -25 85 -60 110 -78 24 -17 50 -32 58 -32 8 0 26 17 40 38
14 20 49 71 78 112 29 41 68 97 87 125 50 74 59 77 117 50 28 -13 95 -44 150
-70 55 -25 112 -52 127 -60 53 -30 70 -21 107 58 18 39 53 114 77 164 24 51
44 96 44 101 0 5 9 18 20 30 19 20 22 20 62 7 24 -8 72 -21 108 -31 101 -26
172 -45 214 -57 34 -10 40 -9 53 9 7 10 16 30 19 44 5 24 20 85 51 200 9 30
23 78 32 105 l16 50 110 -4 c60 -2 154 -9 210 -16 66 -8 104 -9 112 -2 7 5 13
29 13 54 0 24 7 101 15 171 8 70 16 145 17 167 l3 39 150 17 c83 10 178 18
211 18 87 1 88 4 70 148 -8 65 -16 158 -18 207 l-3 89 45 17 c44 17 97 32 175
50 99 24 178 49 191 62 12 12 12 20 0 53 -8 22 -22 69 -31 105 -10 36 -24 90
-32 120 -8 30 -20 72 -26 92 -9 32 -7 41 8 58 10 11 22 20 26 20 8 0 101 43
267 122 94 45 94 44 41 148 -57 115 -118 249 -124 272 -7 29 0 37 75 88 68 46
176 122 223 156 20 15 37 34 37 41 0 7 -20 42 -45 78 -48 70 -121 176 -166
240 l-28 40 149 150 c83 83 150 157 150 165 0 8 -68 82 -150 165 l-150 150
120 174 c67 95 120 181 118 190 -2 8 -50 48 -108 88 -232 161 -233 161 -225
191 3 15 21 59 40 97 85 180 114 242 120 262 7 24 22 15 -293 165 -46 21 -85
45 -88 52 -4 12 5 53 53 226 8 30 19 71 23 90 4 19 12 47 18 62 13 31 -5 53
-53 63 -16 3 -54 13 -82 21 -29 8 -79 21 -110 30 -32 8 -83 23 -113 32 l-55
17 3 90 c2 50 10 145 18 213 8 67 12 127 9 132 -4 6 -29 10 -56 10 -27 0 -107
7 -177 15 -70 8 -145 16 -167 17 -39 3 -40 4 -43 43 -1 22 -9 97 -17 167 -8
70 -15 150 -15 177 0 27 -4 52 -10 56 -5 3 -65 -1 -132 -9 -68 -8 -163 -16
-213 -18 l-90 -3 -16 50 c-9 28 -24 79 -34 115 -9 36 -22 85 -30 110 -7 25
-16 60 -19 79 -4 19 -13 42 -22 52 -13 15 -20 15 -52 4 -37 -13 -95 -29 -162
-44 -19 -5 -72 -19 -118 -31 -79 -22 -83 -22 -102 -5 -11 10 -20 22 -20 26 0
8 -43 101 -122 267 -35 74 -42 82 -61 76 -21 -7 -67 -27 -266 -121 -96 -45
-133 -49 -145 -18 -3 8 -23 39 -44 68 -21 28 -70 96 -107 150 -38 53 -75 97
-82 97 -6 0 -42 -21 -80 -47 -37 -26 -88 -60 -113 -77 -25 -16 -71 -50 -103
-74 -69 -52 -40 -67 -232 126 -73 72 -139 132 -146 132 -8 0 -82 -68 -165
-151z"/>
</g>
</svg>
